<svg version="1.1" id="hand_x5F_arrow_1_" xmlns="http://www.w3.org/2000/svg" x="0" y="0" viewBox="-235 162 128 128" style="enable-background:new -235 162 128 128" xml:space="preserve"><style>.st0{display:none}.st1{display:inline}.st2{fill:#bcbabb}.st3,.st4{fill:#2e1f24}.st4{display:inline}</style><g id="row1_1_"><g id="five_1_"><path class="st2" d="M-192.4 266v4h4v-4h-4zm12.1 0h-4v4h4v-4zm8 0h-4v4h4v-4zm8.1 0h-4v4h4v-4zm8 0h-4v4h4v-4zm8.1 0h-4v4h4v-4zm8 0h-4v4h4v-4zm-52.3 8v4h4v-4h-4zm8.1 0v4h4v-4h-4zm8 0v4h4v-4h-4zm8.1 0v4h4v-4h-4zm8 0v4h4v-4h-4zm8.1 0v4h4v-4h-4zm12 4v-4h-4v4h4zm-44.2-8h-4v4h4v-4zm8 4v-4h-4v4h4zm8.1 0v-4h-4v4h4zm8 0v-4h-4v4h4zm8.1 0v-4h-4v4h4zm4-4v4h4v-4h-4zm-40.2 12h4v-4h-4v4zm8 0h4v-4h-4v4zm8 0h4v-4h-4v4zm8.1 0h4v-4h-4v4zm8 0h4v-4h-4v4zm8.1 0h4v-4h-4v4z" id="dots_8_"/><path id="icon_9_" class="st3" d="M-138.1 196h-4v-13c0-6.1-4-11-10.1-11-1.2 0-3.2.2-4.2.5-.1-.3 0-1.2-.1-1.7-1-5-5.5-8.8-10.8-8.8-6.1 0-11.1 4.9-11.1 11 0 0 .1 1.7 0 5-1.2-1.6-3.4-2-5-2-6.1 0-11.1 4.9-11.1 11v35s-.7-15.6-14.1-14c-9.2 3.3-4.6 11.6-2.6 23.8 1 6 .6 12.9 2.6 20.2 6.2 22.1 19.6 38 41.2 38 21.7 0 39.2-17.5 39.2-39v-46h.2c0-5-5.1-9-10.1-9zm4.4 55c0 18.2-14.9 33-33.2 33-18.3 0-28.3-13.7-33.2-26-2.7-6.8-3.8-18-5.3-27.5-1.3-8.5-4.7-14.8-.7-16.5 7.7-3.3 18.1 32 18.1 32v-59c0-2.8 2.2-5 5-5s5 2.2 5 5v43h6v-57c0-2.8 2.2-5 5-5s5 2.2 5 5v57h6v-47c0-2.8 1.2-5 4-5s4 2.2 4 5v47h6v-25c0-1.7 2.3-3 4-3 1.6 0 4 1.3 4 3h.3v46z"/></g></g></svg>