<svg version="1.1" id="hands_x5F_cursors" xmlns="http://www.w3.org/2000/svg" x="0" y="0" viewBox="0 0 128 128" style="enable-background:new 0 0 128 128" xml:space="preserve"><style>.st0{display:none}.st1{display:inline}.st1,.st2{fill:#262626}.st3{display:inline}</style><g id="row3"><path class="st2" d="M120.6 21c-1.8-1.9-4.2-2.9-6.9-2.9-4.6 0-8 2-10.3 4.4C102 17.2 99.2 10.3 93.2 8c-5.5-2.2-10.3.3-13.6 3.5-.6-2.6-1.7-5.5-3.9-7.7C73.4 1.3 70.2 0 66.5 0 59.1 0 55 6.3 52.7 12.7c-1-2.7-2.5-5.4-4.6-7.6C44.8 1.7 40.7 0 35.6 0c-7.8 0-14.2 7.9-14.2 17.7 0 6.2 2.5 18.3 4.8 28.1-2.7-2.8-6-4.8-9.7-4.8-4.6 0-9.2 2.7-11.6 6.9-2.7 4.7-2.5 10.4.6 15.7 2 3.4 5.7 9.7 10 16.9 7.3 12.4 16.5 27.7 20.4 34.8 4.7 8.4 5.3 9.9 5.4 10.1l1-.3.1.8-.5.5 1.6 1.5.8-.6h62.4v-2.5c0-5.2 3.5-12.1 7.2-19.3 4.8-9.5 10.3-20.4 10.3-31.7 0-19.2.9-38.3.9-38.5 0-.9.1-9.6-4.5-14.3zm-.6 14.2c0 .2-.9 19.3-.9 38.7 0 10.2-5.2 20.4-9.8 29.4-3.5 6.8-6.7 13.2-7.5 19.1H45.4c-.9-1.9-2.5-4.8-5.1-9.5-4-7.1-13.1-22.5-20.5-34.9-4.3-7.2-8-13.5-10-16.9-2.2-3.8-2.4-7.6-.6-10.7 1.5-2.7 4.4-4.4 7.2-4.4 6.1 0 12 11.3 13.6 15.3l4.7-1.6c-.1-.3-8.3-31.4-8.3-42 0-6.1 3.7-12.7 9.2-12.7 3.7 0 6.6 1.2 8.9 3.5 5.8 6 5.3 17.7 5.3 17.8l5 .3c0-.3 1.7-21.6 11.7-21.6 2.4 0 4.2.7 5.6 2.2 3.5 3.7 3.2 10.6 3.2 10.7l-.4 7.9h3.7l1.5-6.6c.1-.1 4.9-9.1 11.4-6.5C97.4 15 99.4 26 99.7 30l.4 6.5h2.9l1.6-6.1c.1-.3 2-7.3 9.2-7.3 1.4 0 2.4.4 3.3 1.4 2.5 2.7 3 8.7 2.9 10.7z" id="_x31_"/></g></svg>