<svg version="1.1" id="hand_x5F_arrow_1_" xmlns="http://www.w3.org/2000/svg" x="0" y="0" viewBox="-235 162 128 128" style="enable-background:new -235 162 128 128" xml:space="preserve"><style>.st0{display:none}.st1{display:inline}.st2{fill:#bcbabb}.st3,.st4{fill:#2e1f24}.st4{display:inline}</style><g id="row3_1_"><g id="two_3_"><path class="st2" d="m-143.1 262.9-4.2.3.3 4.2 4.2-.3-.3-4.2zm-8.4.6-4.2.3.3 4.2 4.2-.3-.3-4.2zm-8.4.6-4.2.3.3 4.2 4.2-.3-.3-4.2zm-8.4.6-4.2.3.3 4.2 4.2-.3-.3-4.2zm-8.4.5-4.2.3.3 4.2 4.2-.3-.3-4.2zm-8.4.6-4.2.3.3 4.2 4.2-.3-.3-4.2zm-12.6.9.3 4.2 4.2-.3-.3-4.2-4.2.3zm55.5 8.8-.3-4.2-4.2.3.3 4.2 4.2-.3zm-12.9-3.3.3 4.2 4.2-.3-.3-4.2-4.2.3zm-8.4.6.3 4.2 4.2-.3-.3-4.2-4.2.3zm-8.4.6.3 4.2 4.2-.3-.3-4.2-4.2.3zm-8.4.6.3 4.2 4.2-.3-.3-4.2-4.2.3zm-8.4.6.3 4.2 4.2-.3-.3-4.2-4.2.3zm-8.4.5.3 4.2 4.2-.3-.3-4.2-4.2.3zm50.4-3.5-.3-4.2-4.2.3.3 4.2 4.2-.3zm-8.4.6-.3-4.2-4.2.3.3 4.2 4.2-.3zm-8.4.6-.3-4.2-4.2.3.3 4.2 4.2-.3zm-8.4.6-.3-4.2-4.2.3.3 4.2 4.2-.3zm-8.4.6-.3-4.2-4.2.3.3 4.2 4.2-.3zm-8.7-3.7-4.2.3.3 4.2 4.2-.3-.3-4.2zm38.4 5.8.3 4.2 4.2-.3-.3-4.2-4.2.3zm-8.1 4.8 4.2-.3-.3-4.2-4.2.3.3 4.2zm-8.4.6 4.2-.3-.3-4.2-4.2.3.3 4.2zm-8.4.6 4.2-.3-.3-4.2-4.2.3.3 4.2zm-8.4.6 4.2-.3-.3-4.2-4.2.3.3 4.2zm-8.4.6 4.2-.3-.3-4.2-4.2.3.3 4.2z" id="dot"/><path id="icon_1_" class="st3" d="M-131.6 219.2c-4.4-6.9-8.8-7.2-9.6-7.2h-.1l9.5-40c-.8-6.3-6.7-10.8-13-9.9-6.2.9-8.2 5.8-8.5 7.5-.2 1.7-11.1 45.7-11.3 46.6 0-.8-6.8-35.3-8.9-40.1-2.1-4.5-5.3-14.3-13.7-13-12.5 2-8.6 15.2-8.2 17.4.5 2.2 4.3 23.4 4.3 23.4s-1.2.2-1.8.4c-5.1 1.6-7.8 6.8-7 12.5l-.7-5.2s-2.6.4-4.2.6c-5.2.7-9.8 5.6-9.1 10.8l4.2 31.4c3.1 22.5 23.8 38.3 46.3 35.2 22.5-3.1 31.6-21.3 35.2-45.3.3-1.8.1-19.7-3.4-25.1zm-4 32.5c-3.6 13.5-9.6 29-28.6 31.6-19 2.6-36.5-10.7-39.1-29.8l-4.3-31.3c-.2-1.7 2-3.5 3.7-3.7 1.7-.2 4.4.8 4.6 2.6l1.3 9.4 6.3-.9-1.9-13.6c-.4-2.9.6-5.4 3.4-5.8 2.9-.4 4.5 1.8 4.9 4.7l1.9 13.6 6.3-.9-7.2-22.5-6.4-29.8c-.4-2.9 1.6-5.6 4.5-5.9 2.9-.4 4.5 1.9 5.9 4.5l13.8 52.2 6.1-.8 12-51c.4-3.1 1.6-5.6 4.5-5.9 2.8-.4 5.5 1.6 5.9 4.5l-13.8 66.5 6.2 1.2 3.4-21.8s2-.4 4.7 3.3c6 8.1 4.6 19.5 1.9 29.6z"/></g></g></svg>